<?xml version="1.0" standalone="no"?><!DOCTYPE svg PUBLIC "-//W3C//DTD SVG 1.1//EN" "http://www.w3.org/Graphics/SVG/1.1/DTD/svg11.dtd"><svg t="1565941076335" class="icon" viewBox="0 0 1024 1024" version="1.1" xmlns="http://www.w3.org/2000/svg" p-id="14791" xmlns:xlink="http://www.w3.org/1999/xlink" width="200" height="200"><defs><style type="text/css"></style></defs><path d="M872.554264 231.53633h-31.422663c15.932878-27.018354 22.926152-52.789297 20.694321-76.692706-1.856277-20.008706-11.336186-48.619324-46.084595-71.422679-28.810163-18.948561-65.853847-23.597441-106.9488-13.33368-66.648956 16.737196-145.525398 74.262354-197.395766 143.787824C459.50388 144.356782 380.685767 86.824461 314.038858 70.089311c-41.133839-10.335393-78.208223-5.650697-107.013269 13.33368-34.715663 22.802332-44.198641 51.411927-46.048779 71.421656-2.234901 23.903409 4.692882 49.674353 20.691251 76.692707h-31.425733c-47.579645 0-86.303598 38.752606-86.303598 86.371136v111.24771c0 37.663808 24.845874 70.952982 60.790528 82.131579-3.416819 9.452279-5.205559 19.22997-5.205559 29.126364v333.753363c0 47.583738 38.767955 86.3476 86.351693 86.347601h611.143022c47.583738 0 86.289272-38.763862 86.289271-86.347601V540.41312c0-9.965979-1.726318-19.768229-5.140067-29.161157 35.889395-11.243065 60.676941-44.533262 60.676941-82.102926V317.931003c0-47.606251-38.706557-86.394672-86.290295-86.394673m-55.53585 667.481144H542.12153V515.538593h274.896884c13.70207 0 24.811082 11.172457 24.811082 24.874527v333.753363c0 13.70207-11.109012 24.850991-24.811082 24.850991m-241.044892-667.482167c43.719734-50.428529 101.104699-90.054015 147.6989-101.747335 24.201192-6.068206 44.005236-4.40431 58.34585 5.045923 15.230889 10.014074 17.947767 18.938328 18.557658 25.684985 2.424212 24.710798-24.084535 58.034764-36.598547 71.01745H575.973522z m321.361125 86.395696v111.224174c0 13.69593-11.07729 24.838711-24.780383 24.838711H542.12153v-160.9149h330.432734c13.70207 0 24.780383 11.162224 24.780383 24.852015M480.64641 515.538593V899.018497H205.875392c-13.734816 0-24.845874-11.148921-24.845874-24.850991V540.41312c0-13.70207 11.113105-24.874527 24.845874-24.874527h274.771018zM222.226802 160.51888c0.606821-6.745634 3.353374-15.669888 18.521842-25.682939 14.241352-9.451256 34.042327-11.195993 58.378596-5.046946 46.336328 11.628852 103.660918 51.260477 147.475819 101.748359H258.76088c-11.211343-11.348466-38.993083-45.710065-36.534078-71.01745m-96.826256 157.412122c0-13.68979 11.113105-24.857131 24.841782-24.857131h330.401012v160.920016H150.242328c-13.731746 0-24.841781-11.143805-24.841782-24.838711v-111.223151z" p-id="14792"></path></svg>