<?xml version="1.0" standalone="no"?><!DOCTYPE svg PUBLIC "-//W3C//DTD SVG 1.1//EN" "http://www.w3.org/Graphics/SVG/1.1/DTD/svg11.dtd"><svg t="1567505935152" class="icon" viewBox="0 0 1024 1024" version="1.1" xmlns="http://www.w3.org/2000/svg" p-id="1769" xmlns:xlink="http://www.w3.org/1999/xlink" width="24" height="24"><defs><style type="text/css"></style></defs><path d="M136.533333 102.4a34.133333 34.133333 0 0 0-34.133333 34.133333v750.933334a34.133333 34.133333 0 0 0 34.133333 34.133333h750.933334a34.133333 34.133333 0 0 0 34.133333-34.133333V136.533333a34.133333 34.133333 0 0 0-34.133333-34.133333H136.533333z m0-68.266667h750.933334a102.4 102.4 0 0 1 102.4 102.4v750.933334a102.4 102.4 0 0 1-102.4 102.4H136.533333a102.4 102.4 0 0 1-102.4-102.4V136.533333a102.4 102.4 0 0 1 102.4-102.4z" p-id="1770"></path><path d="M204.8 273.066667V204.8h68.266667v68.266667zM512 716.8a204.8 204.8 0 1 1 0-409.6 204.8 204.8 0 0 1 0 409.6z m0-68.266667a136.533333 136.533333 0 1 0 0-273.066666 136.533333 136.533333 0 0 0 0 273.066666z" p-id="1771"></path></svg>