<?xml version="1.0" standalone="no"?><!DOCTYPE svg PUBLIC "-//W3C//DTD SVG 1.1//EN" "http://www.w3.org/Graphics/SVG/1.1/DTD/svg11.dtd"><svg t="1565941943121" class="icon" viewBox="0 0 1024 1024" version="1.1" xmlns="http://www.w3.org/2000/svg" p-id="29290" xmlns:xlink="http://www.w3.org/1999/xlink" width="200" height="200"><defs><style type="text/css"></style></defs><path d="M898.88 345.92L704 465.92c-2.88 2.88-2.88 2.88-6.24 0L512 228.8c-2.88-2.88-2.88-2.88-6.24 0L296.48 465.44c-2.88 2.88-2.88 2.88-6.24 0l-168-119.52c-2.88-2.88-6.24 0-6.24 2.88l65.76 425.76c0 6.24 6.24 9.12 12 9.12h621.12c6.24 0 9.12-2.88 12-9.12l78.24-422.4c0-6.24-3.36-9.6-6.24-6.24zM788 864.8H221.6c-14.88 0-29.76 12-29.76 29.76v21.12c0 14.88 12 29.76 29.76 29.76h569.28c14.88 0 29.76-12 27.36-29.76v-21.12c0-14.88-15.36-29.76-30.24-29.76zM32.96 245.6a53.76 53.76 0 1 0 107.52 0 53.76 53.76 0 1 0-107.52 0zM458.24 116.48a53.76 53.76 0 1 0 107.52 0 53.76 53.76 0 1 0-107.52 0zM884 245.6a53.76 53.76 0 1 0 107.52 0 53.76 53.76 0 1 0-107.52 0z" p-id="29291"></path></svg>