<?xml version="1.0" standalone="no"?><!DOCTYPE svg PUBLIC "-//W3C//DTD SVG 1.1//EN" "http://www.w3.org/Graphics/SVG/1.1/DTD/svg11.dtd"><svg t="1565940249784" class="icon" viewBox="0 0 1024 1024" version="1.1" xmlns="http://www.w3.org/2000/svg" p-id="6855" xmlns:xlink="http://www.w3.org/1999/xlink" width="200" height="200"><defs><style type="text/css"></style></defs><path d="M511.402667 589.482667c-174.421333 0-308.224-132.608-308.224-294.229334C203.178667 133.717333 337.066667 0 511.402667 0s308.48 132.608 308.48 294.144c0 161.621333-133.973333 295.253333-308.48 295.253333z m0-498.688c-124.330667 0-207.701333 87.466667-207.701334 203.349333s84.650667 202.069333 207.701334 202.069333c124.245333 0 212.565333-85.077333 212.565333-200.96 0-115.797333-88.32-204.458667-212.48-204.458666zM818.432 1024H205.653333C92.074667 1024 0 938.24 0 832.341333 0 726.528 91.989333 640.853333 205.568 640.853333H818.346667c113.493333 0 205.568 85.76 205.568 191.573334C1024 938.154667 932.010667 1024 818.432 1024zM205.653333 731.392c-65.792 0-111.274667 40.789333-111.274666 102.058667s45.482667 104.277333 111.189333 104.277333H818.346667c65.792 0 114.432-43.008 114.432-104.277333s-48.64-102.058667-114.346667-102.058667H205.482667z" p-id="6856"></path></svg>