<?xml version="1.0" standalone="no"?><!DOCTYPE svg PUBLIC "-//W3C//DTD SVG 1.1//EN" "http://www.w3.org/Graphics/SVG/1.1/DTD/svg11.dtd"><svg t="1565940697111" class="icon" viewBox="0 0 1024 1024" version="1.1" xmlns="http://www.w3.org/2000/svg" p-id="9254" xmlns:xlink="http://www.w3.org/1999/xlink" width="200" height="200"><defs><style type="text/css"></style></defs><path d="M987.648 65.256727 811.054545 69.794909l6.120727-59.205818L182.434909 12.194909l6.260364 58.600727L14.219636 71.982545l4.468364 26.903273c0 0 39.703273 258.210909 45.707636 275.758545 6.004364 17.524364 8.843636 25.693091 8.843636 25.693091 32.698182 69.306182 126.673455 118.039273 206.103273 123.578182 6.120727 7.540364 12.497455 15.010909 19.479273 22.528 46.685091 50.222545 109.125818 76.311273 177.570909 80.989091l0.628364 328.936727L284.532364 954.181818l-0.023273 0c-12.846545 0-23.249455 14.638545-23.272727 27.485091s10.379636 27.508364 23.249455 27.531636l430.266182 0.581818 0.023273 0c12.846545 0 23.249455-12.520727 23.272727-25.367273s-10.379636-25.390545-23.249455-25.413818l-191.208727-2.141091L522.938182 627.362909c68.491636-4.794182 132.142545-30.417455 177.873455-77.125818l0.069818 2.001455c9.890909-10.496 18.967273-22.178909 27.298909-34.653091 86.970182-8.238545 188.136727-66.210909 208.733091-152.901818l0.069818-0.046545c0.209455-1.233455 0.442182-2.606545 0.651636-4.096l1.070545-6.283636-0.209455-0.046545c1.605818-8.192 3.351273-18.338909 5.445818-30.813091L987.648 65.256727zM110.638545 368.500364c-0.302545-1.815273-0.628364-3.746909-1.000727-5.725091l-1.093818-6.632727-0.186182 0.023273c-1.140364-8.005818-2.746182-17.664-4.677818-29.323636L69.073455 118.155636l124.602182-0.837818 27.136 253.998545L221.044364 372.363636 221.021091 372.363636l2.257455 23.272727L224.116364 395.636364c4.491636 30.091636 11.985455 54.365091 21.969455 75.752727C185.856 455.866182 122.856727 414.72 110.638545 368.500364zM670.208 514.909091C627.851636 559.802182 565.550545 581.818182 499.223273 581.818182l-0.465455 0c-64.116364 0-123.042909-21.504-165.864727-67.584-36.235636-38.958545-58.903273-88.738909-65.536-147.572364-0.116364-1.070545-0.279273-1.442909-0.488727-2.932364l-32.674909-305.570909 531.386182-0.698182-32 310.318545C727.202909 426.24 704.186182 477.090909 670.208 514.909091zM892.834909 346.391273l-1.512727 9.029818c-12.613818 52.759273-74.589091 94.789818-135.610182 110.289455 12.171636-29.207273 20.573091-60.974545 24.180364-93.998545l26.368-255.255273 126.091636-3.234909C922.414545 171.869091 899.700364 305.896727 892.834909 346.391273z" p-id="9255"></path></svg>