<?xml version="1.0" standalone="no"?><!DOCTYPE svg PUBLIC "-//W3C//DTD SVG 1.1//EN" "http://www.w3.org/Graphics/SVG/1.1/DTD/svg11.dtd"><svg t="1565940213434" class="icon" viewBox="0 0 1024 1024" version="1.1" xmlns="http://www.w3.org/2000/svg" p-id="6105" xmlns:xlink="http://www.w3.org/1999/xlink" width="200" height="200"><defs><style type="text/css"></style></defs><path d="M979.203387 862.154172l-91.760804 0 0-88.8707c0-7.044629-5.96084-12.824837-13.1861-12.824837l-34.319986 0c-7.22526 0-13.1861 5.780208-13.1861 12.824837l0 88.8707L735.170224 862.154172c-7.22526 0-13.1861 5.780208-13.1861 12.824837l0 33.236197c0 7.044629 5.96084 12.824837 13.1861 12.824837l91.760804 0 0 88.8707c0 7.044629 5.96084 12.824837 13.1861 12.824837l34.319986 0c7.22526 0 13.1861-5.780208 13.1861-12.824837l0-88.8707 91.760804 0c7.22526 0 13.1861-5.780208 13.1861-12.824837l0-33.236197C992.389487 867.93438 986.609279 862.154172 979.203387 862.154172L979.203387 862.154172 979.203387 862.154172 979.203387 862.154172zM845.897336 689.831716c15.714941-16.618098 14.811783-42.809667-1.986947-58.343976-47.325454-44.074087-102.418063-77.671547-162.02646-99.708591 74.962074-52.563768 123.913212-139.26689 123.913212-236.988534 0-160.039513-131.138472-290.094197-292.261775-290.094197-161.123302 0-292.261775 130.054683-292.261775 290.094197 0 97.902276 49.131769 184.605398 124.093844 237.169166C161.845828 599.877227 30.707356 775.631681 30.707356 981.370965c0 22.75957 18.605045 41.364615 41.545246 41.364615 22.940201 0 41.725878-18.605045 41.725878-41.364615 0-215.312754 173.586876-391.067208 389.260893-396.666784 3.431999 0.180632 7.044629 0.180632 10.476627 0.180632 3.431999 0 7.044629-0.180632 10.476627-0.180632C622.275534 587.05239 715.300759 624.985006 787.011466 691.818663 803.810196 707.352972 830.182395 706.449815 845.897336 689.831716L845.897336 689.831716 845.897336 689.831716 845.897336 689.831716zM522.747575 501.974951c-2.890104 0-5.96084-0.180632-9.031575-0.180632-2.890104 0-5.780208 0-8.850944 0.180632-111.269007-4.515788-200.139707-95.734697-200.139707-207.184336 0-114.339742 93.747751-207.364967 208.990651-207.364967 115.2429 0 208.990651 93.025225 208.990651 207.364967C722.70665 406.059623 633.83595 497.278532 522.747575 501.974951L522.747575 501.974951 522.747575 501.974951 522.747575 501.974951zM522.747575 501.974951" p-id="6106"></path></svg>