<?xml version="1.0" standalone="no"?><!DOCTYPE svg PUBLIC "-//W3C//DTD SVG 1.1//EN" "http://www.w3.org/Graphics/SVG/1.1/DTD/svg11.dtd"><svg t="1565942252229" class="icon" viewBox="0 0 1024 1024" version="1.1" xmlns="http://www.w3.org/2000/svg" p-id="31408" xmlns:xlink="http://www.w3.org/1999/xlink" width="200" height="200"><defs><style type="text/css"></style></defs><path d="M383.811456 1001.354234c-2.996241 0-5.17179 0-7.347339 0-62.536288 0-125.071553 0.00921-187.607842-0.004093-31.024597-0.00614-51.55212-20.341281-51.557236-51.215452-0.026606-154.630776 0.035816-309.261553-0.078795-463.892329-0.013303-17.330714 6.482645-31.023574 19.885909-41.890063 106.813724-86.60138 213.553771-173.293835 320.348052-259.918751 21.484314-17.425881 45.043892-17.472953 66.49546-0.074701 106.952894 86.748736 213.845413 173.572174 320.804447 260.313747 13.050224 10.583033 19.531845 23.9996 19.525706 40.832987-0.056282 155.233504-0.016373 310.468031-0.048095 465.701534-0.00614 29.241998-20.942985 50.111305-50.237171 50.132794-63.340607 0.045025-126.680191 0.013303-190.020798 0.013303-1.777483 0-3.555989 0-6.213515 0 0-2.926656 0-5.446036 0-7.965415 0-87.470167 0.016373-174.940334-0.013303-262.409478-0.00614-19.386536-9.185196-32.943296-25.787316-37.634132-4.374634-1.236154-9.117658-1.622964-13.691837-1.63115-58.314127-0.104377-116.628254-0.110517-174.942381-0.050142-25.183566 0.026606-39.507806 14.560624-39.508829 39.844473-0.007163 87.068008-0.00307 174.134992-0.00307 261.203C383.811456 995.310587 383.811456 997.909785 383.811456 1001.354234zM1013.788427 432.135044c-0.478907 9.213849-0.045025 18.58631-1.610684 27.612894-4.40431 25.387203-27.957749 42.798758-53.924143 40.712237-25.765827-2.070148-46.546106-23.39892-46.113247-49.167816 0.179079-10.653641-3.505847-16.819061-11.659551-23.215748-117.507274-92.186585-234.728022-184.737468-352.023472-277.193183-2.839675-2.237971-5.637394-4.557806-8.651031-6.540973-20.782326-13.671371-42.337247-12.622482-62.510706 3.264347-81.172741 63.922868-162.294316 127.913275-243.433288 191.879122-39.780005 31.361265-79.519078 62.773695-119.404484 94.000907-3.563152 2.790556-4.803399 5.627161-4.854565 10.072403-0.078795 6.975878-0.149403 14.220886-1.995447 20.859074-6.595208 23.711028-30.768771 39.240723-54.651714 35.874045-25.839505-3.64297-44.416606-24.170492-44.708248-49.604768-0.1361-11.861142 0.105401-23.725354 0.025583-35.58752-0.12075-17.931395 7.006578-32.166607 21.083178-43.24492 72.346725-56.93778 144.627958-113.956402 216.926588-170.954557 64.089667-50.526767 128.197754-101.029998 192.249559-151.60486 45.063335-35.582403 99.462293-35.533284 144.603399 0.075725 135.726218 107.065458 271.445272 214.141148 407.320892 321.018318 15.591093 12.264325 23.606651 27.423583 22.848381 47.249117-0.184195 4.818749-0.027629 9.649777-0.027629 14.475689C1013.447666 432.119695 1013.618559 432.126858 1013.788427 432.135044z" p-id="31409"></path></svg>