<?xml version="1.0" standalone="no"?><!DOCTYPE svg PUBLIC "-//W3C//DTD SVG 1.1//EN" "http://www.w3.org/Graphics/SVG/1.1/DTD/svg11.dtd"><svg t="1565939742254" class="icon" viewBox="0 0 1024 1024" version="1.1" xmlns="http://www.w3.org/2000/svg" p-id="1731" xmlns:xlink="http://www.w3.org/1999/xlink" width="200" height="200"><defs><style type="text/css"></style></defs><path d="M85.333333 852.992V213.333333a42.666667 42.666667 0 0 1 42.666667-42.666666h768a42.666667 42.666667 0 0 1 42.666667 42.666666v640a42.666667 42.666667 0 0 1-42.666667 42.666667H128a42.666667 42.666667 0 0 1-42.666667-42.666667v-0.341333z m768-157.610667V256H170.666667v493.994667l127.744-127.744a42.666667 42.666667 0 0 1 47.018666-9.045334l126.293334 54.314667 184.789333-146.346667a42.666667 42.666667 0 0 1 59.52 6.485334L853.333333 695.381333zM837.418667 810.666667l-160.853334-196.48-171.818666 136.021333a42.666667 42.666667 0 0 1-43.349334 5.76l-123.093333-52.906667L230.656 810.666667h606.762667zM341.333333 512a85.333333 85.333333 0 1 1 0-170.666667 85.333333 85.333333 0 0 1 0 170.666667z" p-id="1732"></path></svg>