<?xml version="1.0" standalone="no"?><!DOCTYPE svg PUBLIC "-//W3C//DTD SVG 1.1//EN" "http://www.w3.org/Graphics/SVG/1.1/DTD/svg11.dtd"><svg t="1565939908305" class="icon" viewBox="0 0 1024 1024" version="1.1" xmlns="http://www.w3.org/2000/svg" p-id="1849" xmlns:xlink="http://www.w3.org/1999/xlink" width="200" height="200"><defs><style type="text/css"></style></defs><path d="M512 768c-171.52 0-312.362667-78.250667-419.029333-231.68a42.666667 42.666667 0 0 1 0-48.64C199.637333 334.208 340.522667 256 512 256c171.52 0 312.362667 78.250667 419.029333 231.68a42.666667 42.666667 0 0 1 0 48.64C824.362667 689.792 683.477333 768 512 768z m0-85.333333c133.546667 0 242.944-56.021333 331.178667-170.666667C754.944 397.354667 645.546667 341.333333 512 341.333333s-242.944 56.021333-331.178667 170.666667C269.056 626.645333 378.453333 682.666667 512 682.666667z m0-42.666667a128 128 0 1 1 0-256 128 128 0 0 1 0 256z m0-85.333333a42.666667 42.666667 0 1 0 0-85.333334 42.666667 42.666667 0 0 0 0 85.333334z" p-id="1850"></path></svg>