<?xml version="1.0" standalone="no"?><!DOCTYPE svg PUBLIC "-//W3C//DTD SVG 1.1//EN" "http://www.w3.org/Graphics/SVG/1.1/DTD/svg11.dtd"><svg t="1565939736755" class="icon" viewBox="0 0 1024 1024" version="1.1" xmlns="http://www.w3.org/2000/svg" p-id="1613" xmlns:xlink="http://www.w3.org/1999/xlink" width="200" height="200"><defs><style type="text/css"></style></defs><path d="M208.597333 772.736H853.333333a37.930667 37.930667 0 1 1 0 75.861333H170.666667A37.930667 37.930667 0 0 1 132.736 810.666667V213.333333A37.930667 37.930667 0 1 1 208.64 213.333333v559.402667z m102.442667-159.061333a37.930667 37.930667 0 1 1-53.205333-54.016l134.101333-132.010667a37.930667 37.930667 0 0 1 53.205333 0l88.96 87.594667 142.72-140.501334a37.930667 37.930667 0 0 1 45.909334-5.632l94.933333 56.106667a37.930667 37.930667 0 0 1-38.613333 65.28l-69.802667-41.258667-148.522667 146.218667a37.930667 37.930667 0 0 1-53.205333 0l-89.002667-87.552-107.477333 105.813333z" p-id="1614"></path></svg>