<?xml version="1.0" standalone="no"?><!DOCTYPE svg PUBLIC "-//W3C//DTD SVG 1.1//EN" "http://www.w3.org/Graphics/SVG/1.1/DTD/svg11.dtd"><svg t="1565940889089" class="icon" viewBox="0 0 1024 1024" version="1.1" xmlns="http://www.w3.org/2000/svg" p-id="11358" xmlns:xlink="http://www.w3.org/1999/xlink" width="200" height="200"><defs><style type="text/css"></style></defs><path d="M912.6144 131.713707h-113.114453v-40.772267c0-19.725653-15.988053-35.715413-35.713707-35.715413s-35.715413 15.98976-35.715413 35.715413v40.772267H295.929173v-40.772267c0-19.725653-15.98976-35.715413-35.715413-35.715413s-35.713707 15.98976-35.713707 35.715413v40.772267H111.387307C64.083627 131.713707 25.6 171.769173 25.6 220.99968v653.651627c0 49.23392 38.483627 89.285973 85.787307 89.285973h801.2288c47.30368 0 85.7856-40.05376 85.7856-89.285973V220.99968c-0.001707-49.230507-38.483627-89.285973-85.787307-89.285973z m14.354773 742.9376c0 9.680213-6.57408 17.85856-14.354773 17.85856H111.387307c-7.784107 0-14.358187-8.178347-14.358187-17.85856V220.99968c0-9.680213 6.575787-17.856853 14.358187-17.856853h113.112746v40.77568c0 19.723947 15.988053 35.712 35.713707 35.712s35.715413-15.988053 35.715413-35.712v-40.77568h432.14336v40.77568c0 19.723947 15.98976 35.712 35.715414 35.712s35.713707-15.988053 35.713706-35.712v-40.77568h113.114454c7.7824 0 14.354773 8.17664 14.354773 17.856853v653.651627z" fill="" p-id="11359"></path><path d="M752.96768 360.5504L484.990293 638.363307l-173.39904-156.335787c-14.650027-13.20448-37.229227-12.03712-50.44224 2.609493-13.206187 14.651733-12.03712 37.23264 2.6112 50.44224l199.043414 179.456a35.597653 35.597653 0 0 0 23.908693 9.188694 35.623253 35.623253 0 0 0 25.71264-10.919254l291.950933-302.667093c13.692587-14.19264 13.2864-36.804267-0.91136-50.49856-14.190933-13.692587-36.800853-13.288107-50.496853 0.91136z" fill="" p-id="11360"></path></svg>