<?xml version="1.0" standalone="no"?><!DOCTYPE svg PUBLIC "-//W3C//DTD SVG 1.1//EN" "http://www.w3.org/Graphics/SVG/1.1/DTD/svg11.dtd"><svg t="1566021234098" class="icon" viewBox="0 0 1084 1024" version="1.1" xmlns="http://www.w3.org/2000/svg" p-id="3730" xmlns:xlink="http://www.w3.org/1999/xlink" width="211.71875" height="200"><defs><style type="text/css"></style></defs><path d="M1009.061647 1.084235H63.969882C29.274353 1.084235 1.084235 29.936941 1.084235 65.355294v835.282824c0 35.538824 28.190118 64.210824 63.006118 64.210823h945.091765c34.755765 0 62.945882-28.732235 62.945882-64.210823V65.355294c0-35.418353-28.190118-64.271059-63.006118-64.271059z m0 867.388236a31.804235 31.804235 0 0 1-31.503059 32.165647H95.533176a31.804235 31.804235 0 0 1-31.503058-32.165647v-125.590589l220.461176-232.809411c35.478588-39.152941 63.006118 0 63.006118 0l126.012235 128.542117 252.024471-257.024c33.490824-39.152941 63.006118 0 63.006117 0l220.521412 224.858353v262.02353z m0-344.304942L813.176471 320.391529c-65.957647-71.318588-109.266824-2.048-109.266824-2.048L473.449412 556.272941 366.230588 439.838118c-49.212235-65.295059-102.4 7.047529-102.4 7.047529l-199.80047 208.112941V97.581176c0-17.769412 14.095059-32.165647 31.503058-32.165647h882.025412c17.468235 0 31.503059 14.456471 31.503059 32.165647v426.646589zM221.545412 193.837176c-34.816 0-63.006118 28.852706-63.006118 64.271059 0 35.538824 28.190118 64.271059 63.006118 64.271059 34.755765 0 63.006118-28.732235 63.006117-64.271059 0-35.418353-28.250353-64.271059-63.006117-64.271059z" p-id="3731"></path></svg>