<?xml version="1.0" standalone="no"?><!DOCTYPE svg PUBLIC "-//W3C//DTD SVG 1.1//EN" "http://www.w3.org/Graphics/SVG/1.1/DTD/svg11.dtd"><svg t="1565940145668" class="icon" viewBox="0 0 1024 1024" version="1.1" xmlns="http://www.w3.org/2000/svg" p-id="5392" xmlns:xlink="http://www.w3.org/1999/xlink" width="200" height="200"><defs><style type="text/css"></style></defs><path d="M961.522234 1023.647018H61.418821a35.298173 35.298173 0 0 1-35.298173-35.298173V194.492933a35.298173 35.298173 0 0 1 35.298173-35.298173h260.147535a194.139952 194.139952 0 0 1 381.926233 0h259.08859a35.298173 35.298173 0 0 1 35.298173 35.298173V988.348845a35.298173 35.298173 0 0 1-35.298173 35.298173zM96.716994 953.050672h829.507067V229.791107h-291.209928v-31.768356a125.661496 125.661496 0 0 0-97.422958-124.602551 123.896587 123.896587 0 0 0-149.664253 120.719752v35.298173H96.716994z" p-id="5393"></path><path d="M692.197173 229.791107v70.596346h-352.98173v-70.596346h-70.596346v141.192692h494.174422v-141.192692h-70.596346zM440.874181 736.672871l-124.955532-124.60255-49.770424 49.770424 124.955532 124.955532 49.770424 49.770424 49.770424-49.770424 274.619787-274.619786-49.770424-49.770424-274.619787 274.266804z" p-id="5394"></path></svg>