<?xml version="1.0" standalone="no"?><!DOCTYPE svg PUBLIC "-//W3C//DTD SVG 1.1//EN" "http://www.w3.org/Graphics/SVG/1.1/DTD/svg11.dtd"><svg t="1565941253264" class="icon" viewBox="0 0 1024 1024" version="1.1" xmlns="http://www.w3.org/2000/svg" p-id="18924" xmlns:xlink="http://www.w3.org/1999/xlink" width="200" height="200"><defs><style type="text/css"></style></defs><path d="M512 0C229.23264 0 0 229.23264 0 512c0 282.76736 229.23264 512 512 512 282.76736 0 512-229.23264 512-512C1024 229.23264 794.76736 0 512 0zM518.83008 921.6c-226.21184 0-409.6-183.38816-409.6-409.6s183.38816-409.6 409.6-409.6 409.6 183.38816 409.6 409.6S745.04192 921.6 518.83008 921.6z" p-id="18925"></path><path d="M661.0944 576.31744 506.08128 679.66976c-53.26848 35.51232-96.45056 12.4416-96.45056-51.5584L409.63072 395.9296c0-63.98976 43.18208-87.07072 96.45056-51.5584L661.0944 447.71328C714.36288 483.2256 714.36288 540.81536 661.0944 576.31744z" p-id="18926"></path></svg>