<?xml version="1.0" standalone="no"?><!DOCTYPE svg PUBLIC "-//W3C//DTD SVG 1.1//EN" "http://www.w3.org/Graphics/SVG/1.1/DTD/svg11.dtd"><svg t="1565940019079" class="icon" viewBox="0 0 1024 1024" version="1.1" xmlns="http://www.w3.org/2000/svg" p-id="3787" xmlns:xlink="http://www.w3.org/1999/xlink" width="200" height="200"><defs><style type="text/css"></style></defs><path d="M552.97024 504.57088c49.18784-43.14112 80.3328-106.37824 80.3328-176.78848 0-129.6896-105.50784-235.19744-235.19744-235.19744S162.90816 198.0928 162.90816 327.7824c0 70.41024 31.14496 133.64736 80.3328 176.78848-134.31808 61.312-228.28032 199.71072-228.28032 360.34048 0 31.104 25.216 56.32 56.32 56.32s56.32-25.216 56.32-56.32c0-155.19744 121.34912-281.45664 270.50496-281.45664s270.50496 126.2592 270.50496 281.45664c0 31.104 25.216 56.32 56.32 56.32s56.32-25.216 56.32-56.32c0.00512-160.62464-93.96224-299.02336-228.28032-360.34048zM398.1056 205.22496c67.57888 0 122.55744 54.97856 122.55744 122.55744S465.68448 450.33984 398.1056 450.33984 275.54816 395.36128 275.54816 327.7824s54.97856-122.55744 122.55744-122.55744z" fill="" p-id="3788"></path><path d="M702.04928 460.47744h250.91072c28.27264 0 51.2-22.92224 51.2-51.2s-22.92736-51.2-51.2-51.2h-250.91072c-28.27264 0-51.2 22.92224-51.2 51.2s22.92224 51.2 51.2 51.2zM952.96 542.25408h-170.60864c-28.27264 0-51.2 22.92736-51.2 51.2s22.92736 51.2 51.2 51.2h170.60864c28.27264 0 51.2-22.92736 51.2-51.2s-22.92736-51.2-51.2-51.2zM952.96 726.43584h-100.92544c-28.27264 0-51.2 22.92736-51.2 51.2s22.92736 51.2 51.2 51.2h100.92544c28.27264 0 51.2-22.92736 51.2-51.2s-22.92736-51.2-51.2-51.2z" fill="" p-id="3789"></path></svg>